<?xml version="1.0" encoding="UTF-8"?>
<!DOCTYPE svg PUBLIC "-//W3C//DTD SVG 1.1//EN" "http://www.w3.org/Graphics/SVG/1.1/DTD/svg11.dtd">
<!-- Creator: CorelDRAW 2019 (64-Bit Versión de evaluación) -->
<svg xmlns="http://www.w3.org/2000/svg" xml:space="preserve" width="100%" height="100%" version="1.1" style="shape-rendering:geometricPrecision; text-rendering:geometricPrecision; image-rendering:optimizeQuality; fill-rule:evenodd; clip-rule:evenodd"
viewBox="0 0 32350 11850"
 xmlns:xlink="http://www.w3.org/1999/xlink">
 <defs>
  <style type="text/css">
   <![CDATA[
    .str0 {stroke:red;stroke-width:811.39;stroke-miterlimit:22.9256}
    .fil2 {fill:#24297A}
    .fil0 {fill:white}
    .fil1 {fill:#24297A;fill-rule:nonzero}
   ]]>
  </style>
 </defs>
 <g id="Capa_x0020_1">
  <metadata id="CorelCorpID_0Corel-Layer"/>
  <path class="fil0 str0" d="M5763.13 921.01l20923.47 0c2415.66,-0.01 4374.67,2258.38 4374.67,5043.19l0 0c0,2784.8 -1959.01,5043.19 -4374.67,5043.19l-20923.47 0.01c-2415.65,-0.01 -4374.66,-2258.4 -4374.66,-5043.2l-0.01 0c0.01,-2784.81 1959.02,-5043.2 4374.68,-5043.2z"/>
  <path class="fil1" d="M26494.21 5909c0,-211.69 35.94,-412.18 106.94,-601.41 71,-189.17 176.15,-360.98 314.35,-517.46 135.35,-147.28 288.74,-260.79 459.14,-339.54 171.36,-78.73 351.25,-118.66 539.64,-118.66 192.22,0 374.96,39.93 548.16,118.66 172.3,78.75 325.69,192.26 459.2,339.54 134.41,150.31 236.71,321.12 307.71,511.36 70.05,191.25 105.05,393.75 105.05,607.51 0,213.76 -35,416.27 -105.05,607.46 -71,190.24 -173.3,361.04 -307.71,510.34 -133.51,148.29 -286.9,261.81 -459.2,340.61 -173.2,78.74 -355.94,118.61 -548.16,118.61 -188.39,0 -368.28,-39.87 -539.64,-118.61 -170.4,-78.8 -323.79,-192.32 -459.14,-340.61 -138.2,-155.46 -243.35,-328.28 -314.35,-516.45 -71,-189.23 -106.94,-389.66 -106.94,-601.35zm908.84 -6.16c0,171.82 50.18,318.09 149.59,438.78 99.4,120.63 219.64,180.99 360.69,180.99 142.05,0 264.17,-60.36 365.48,-180.99 101.3,-120.69 152.43,-266.96 152.43,-438.78 0,-171.81 -51.13,-318.04 -152.43,-438.72 -101.31,-120.69 -223.43,-181.05 -365.48,-181.05 -141.05,0 -261.29,60.36 -360.69,181.05 -99.41,120.68 -149.59,266.91 -149.59,438.72z"/>
  <path class="fil1" d="M24596.91 3650.82l880.46 0 0 742.5 698.7 0 0 889.76 -698.7 0 0 958.29c0,107.38 21.79,184.09 65.33,228.07 43.54,43.97 120.25,65.44 230.06,65.44l403.31 0 0 895.91 -328.53 0c-428.85,0 -744.12,-101.24 -946.72,-303.75 -202.6,-203.51 -303.91,-521.57 -303.91,-954.19l0 -2522.03z"/>
  <polygon class="fil1" points="23193.84,7430.79 23193.84,3141.52 24091.36,3141.52 24091.36,7430.79 "/>
  <path class="fil1" d="M21824.84 7430.79l0 -1453.29c0,-222.94 -45.45,-391.7 -135.4,-505.21 -90.88,-113.52 -226.26,-170.8 -405.19,-170.8 -147.69,0 -267.94,55.23 -360.72,165.68 -91.81,111.49 -138.22,256.71 -138.22,435.69 0,185.11 48.29,333.38 145.81,442.83 97.5,109.43 230.07,164.66 398.57,164.66 40.71,0 88.04,-6.15 142.02,-18.41 53.96,-11.26 124.01,-32.73 211.12,-62.4l0 995.11c-71.98,16.37 -140.11,28.64 -205.46,36.82 -64.36,8.2 -124.95,12.27 -179.86,12.27 -410.9,0 -749.83,-148.3 -1015.85,-443.86 -266.04,-295.56 -399.54,-670.9 -399.54,-1127.02 0,-456.15 133.5,-831.47 399.54,-1127.05 266.02,-295.56 604.02,-443.86 1014.88,-443.86 283.08,0 538.71,78.74 767.83,235.23 230.06,156.47 401.42,371.24 515.96,643.28 44.51,103.31 76.7,218.88 95.63,345.68 19.87,126.83 29.35,328.3 29.35,604.43l0 1270.22 -880.47 0z"/>
  <path class="fil1" d="M16876.21 7430.79l0 -1024.76 1368.99 0c79.53,0 141.08,-18.42 184.64,-54.21 43.53,-35.78 65.3,-87.95 65.3,-155.44 0,-60.35 -21.77,-119.66 -66.29,-177.97 -44.48,-59.3 -112.65,-119.66 -205.43,-182.04l-763.06 -497.04c-174.2,-115.55 -313.38,-264.88 -417.52,-447.95 -103.18,-182.04 -155.27,-370.22 -155.27,-564.53 0,-187.17 29.34,-356.93 89.01,-510.36 58.67,-152.38 146.73,-282.26 263.19,-390.67 109.82,-103.28 244.25,-176.92 403.31,-219.88 159.06,-42.95 417.51,-64.42 774.43,-64.42l906.98 0 0 981.8 -1040.46 0c-143.89,0 -243.32,12.27 -298.24,37.83 -53.95,24.57 -81.41,66.47 -81.41,126.83 0,58.29 20.83,115.57 63.41,171.81 42.63,57.27 108.9,114.56 196.95,172.84l746.99 479.65c212.06,139.09 373.94,304.78 484.7,497.04 110.78,191.26 166.63,400.93 166.63,625.91 0,194.31 -37.85,373.3 -113.61,538.97 -75.72,166.71 -181.77,300.68 -316.2,405.01 -118.34,89.99 -251.82,154.42 -399.54,193.3 -147.68,38.85 -382.46,58.28 -704.37,58.28l-61.55 0 -1091.58 0z"/>
  <path class="fil1" d="M12104.6 5909c0,-211.69 36.01,-412.18 107.01,-601.41 70.99,-189.17 176.09,-360.98 314.29,-517.46 135.41,-147.28 288.79,-260.79 459.2,-339.54 171.35,-78.73 351.24,-118.66 539.62,-118.66 192.23,0 374.92,39.93 548.18,118.66 172.3,78.75 325.68,192.26 459.19,339.54 134.41,150.31 236.71,321.12 307.66,511.36 70.1,191.25 105.1,393.75 105.1,607.51 0,213.76 -35,416.27 -105.1,607.46 -70.95,190.24 -173.25,361.04 -307.66,510.34 -133.51,148.29 -286.89,261.81 -459.19,340.61 -173.26,78.74 -355.95,118.61 -548.18,118.61 -188.38,0 -368.27,-39.87 -539.62,-118.61 -170.41,-78.8 -323.79,-192.32 -459.2,-340.61 -138.2,-155.46 -243.3,-328.28 -314.29,-516.45 -71,-189.23 -107.01,-389.66 -107.01,-601.35zm1058.49 432.62c99.41,120.63 219.64,180.99 360.69,180.99 142.05,0 264.17,-60.36 365.48,-180.99 101.3,-120.69 152.43,-266.96 152.43,-438.78 0,-171.81 -51.13,-318.04 -152.43,-438.72 -101.31,-120.69 -223.43,-181.05 -365.48,-181.05 -141.05,0 -261.28,60.36 -360.69,181.05 -200.08,242.88 -200.08,634.56 0,877.5z"/>
  <path class="fil1" d="M11735.4 7260c0,488.85 -125.94,867.25 -376.82,1133.17 -251.83,266.93 -610.64,399.88 -1075.49,399.88 -164.73,0 -330.41,-11.25 -497.04,-34.76 -165.69,-22.5 -330.41,-56.25 -493.26,-100.23l0 -920.46c160.95,55.24 313.37,96.13 457.28,123.76 143.91,27.6 281.2,41.94 412.8,41.94 262.23,0 443.06,-55.23 542.46,-164.68 99.4,-109.43 149.6,-323.16 149.6,-640.22l0 -1120.9c0,-224.98 -44.51,-394.76 -134.45,-507.25 -89.94,-112.51 -223.42,-168.76 -400.47,-168.76 -147.68,0 -267.92,55.23 -360.72,165.68 -91.84,111.49 -138.2,256.71 -138.2,435.69 0,185.11 48.27,333.38 145.79,442.83 97.52,109.43 230.06,164.66 398.58,164.66 40.7,0 88.05,-6.15 142.01,-18.41 53.97,-11.26 124.02,-32.73 211.12,-62.4l0 965.46c-79.52,16.36 -151.48,27.6 -214.91,35.79 -64.38,8.19 -123.09,12.27 -176.1,12.27 -408.99,0 -746.03,-146.24 -1011.13,-438.74 -266.03,-293.53 -398.57,-663.75 -398.57,-1113.75 0,-449.98 134.44,-822.26 402.36,-1116.8 267.94,-294.54 604.97,-441.82 1012.08,-441.82 283.08,0 537.75,77.73 764.97,234.21 228.15,155.45 398.57,370.22 513.14,644.3 44.5,103.31 76.67,218.88 95.61,345.68 19.89,126.83 29.36,328.3 29.36,604.43l0 1099.43z"/>
  <polygon class="fil1" points="7617.06,7430.79 7617.06,4393.32 8514.58,4393.32 8514.58,7430.79 "/>
  <path class="fil1" d="M5537.05 7430.79l0 -3037.47 813.26 0 0 456.13c88.99,-158.53 203.57,-274.09 343.67,-346.7 141.07,-72.62 320,-109.43 538.71,-109.43l105.07 0 0 920.45 -38.82 0c-319.99,0 -550.06,76.7 -692.07,229.08 -141.04,152.38 -212.06,401.92 -212.06,746.58l0 1141.36 -857.76 0z"/>
  <path class="fil1" d="M3040.5 7430.8l0 -2852.36c0,-486.82 113.37,-848.14 340.81,-1084.08 227.02,-235.49 575.63,-352.87 1044.26,-352.87l3402.64 0c-45.7,25.65 -88.29,59.48 -127.87,101.37 -101.31,107.4 -151.48,238.29 -151.48,391.73 0,154.4 50.17,285.33 151.48,393.69 45.17,48.73 94.25,86.53 147.43,113.46l-3405.12 0c-137.26,0 -240.51,37.8 -309.61,112.51 -69.1,74.65 -104.16,185.09 -104.16,330.3l0 281.25 1102.04 0 0 1000.25 -1102.04 0 0 1564.75 -988.38 0zm5262.93 -4289.31l11021.06 0 0 1000.25 -11040.62 0c53.19,-26.93 102.26,-64.73 147.38,-113.46 101.31,-108.36 151.49,-239.29 151.49,-393.69 0,-153.44 -50.18,-284.33 -151.49,-391.73 -39.53,-41.89 -82.12,-75.72 -127.82,-101.37z"/>
  <rect class="fil2" x="9292.8" y="7900.7" width="20043.71" height="883.94"/>
 </g>
</svg>
